<svg version="1.1" id="Layer_1" xmlns="http://www.w3.org/2000/svg" xmlns:xlink="http://www.w3.org/1999/xlink" x="0px" y="0px"
	 width="100%" viewBox="0 0 1024 1024" enable-background="new 0 0 1024 1024" xml:space="preserve">
<path fill="#000000" opacity="1.000000" stroke="none" 
	d="
M236.006058,564.940369 
	C236.049728,578.362854 236.049728,578.364807 223.046204,578.387817 
	C218.214310,578.396362 213.382385,578.386780 208.550491,578.397095 
	C200.756165,578.413635 200.756180,578.417725 198.162537,571.216614 
	C190.717804,575.844299 182.879013,579.106140 173.992889,579.702942 
	C146.442429,581.553406 124.744896,565.084045 123.888603,536.926514 
	C123.103943,511.124573 123.726158,485.280396 123.676926,459.454926 
	C123.668236,454.895111 125.660973,452.721191 130.319366,452.773926 
	C138.482330,452.866333 146.647507,452.783173 154.811646,452.747406 
	C159.305984,452.727692 161.441864,454.676910 161.414261,459.418518 
	C161.297821,479.411896 161.345383,499.406494 161.408432,519.400452 
	C161.419952,523.056580 161.614380,526.730286 162.015671,530.363708 
	C163.175278,540.863098 169.211105,546.134094 179.634613,545.950623 
	C190.083267,545.766846 197.339874,539.354553 197.663345,529.150757 
	C198.085526,515.833374 197.937439,502.497375 197.996185,489.169189 
	C198.038040,479.672211 197.953979,470.174377 198.045410,460.678070 
	C198.104568,454.533691 199.719696,452.871613 205.725372,452.781952 
	C213.554840,452.664978 221.388779,452.821411 229.217239,452.672668 
	C233.686188,452.587799 235.587296,454.850250 235.835678,458.986755 
	C235.925446,460.481812 235.942947,461.982880 235.944092,463.481262 
	C235.969513,497.137726 235.988037,530.794189 236.006058,564.940369 
z"/>
<path fill="#000000" opacity="1.000000" stroke="none" 
	d="
M244.802887,546.000000 
	C244.787399,517.500366 244.767197,489.500702 244.757401,461.501068 
	C244.754745,453.919220 245.823746,452.836670 253.399414,452.792114 
	C259.399139,452.756866 265.399414,452.805115 271.399078,452.763367 
	C276.642090,452.726898 282.627380,451.426880 281.857788,459.616486 
	C284.294525,460.178894 285.414429,459.007507 286.683044,458.293945 
	C314.499756,442.647858 353.648163,455.828827 356.375946,494.370148 
	C358.224915,520.494995 356.867859,546.669434 357.195404,572.819214 
	C357.236511,576.098755 355.667175,578.108826 352.136841,578.391052 
	C343.483917,579.082886 334.831818,579.051819 326.165497,578.730042 
	C321.409912,578.553406 319.477264,576.488831 319.524078,571.535706 
	C319.714691,551.371155 319.617065,531.203552 319.543518,511.037354 
	C319.531433,507.719635 319.260651,504.384277 318.846100,501.090210 
	C317.635773,491.472809 311.211182,485.765320 301.739288,485.721161 
	C291.552795,485.673676 284.343506,491.834961 283.294952,501.688293 
	C282.181335,512.152466 282.837799,522.650024 282.917755,533.137268 
	C283.013031,545.636475 283.020020,558.136536 283.005096,570.636169 
	C282.997314,577.156860 281.976837,578.062866 275.608124,578.515869 
	C267.781311,579.072510 259.950775,579.111389 252.129089,578.759705 
	C246.275040,578.496460 244.893494,576.909851 244.835312,570.999634 
	C244.754929,562.833740 244.806824,554.666626 244.802887,546.000000 
z"/>
<path fill="#000000" opacity="1.000000" stroke="none" 
	d="
M479.000092,649.690979 
	C491.832031,649.690063 504.164185,649.650085 516.495728,649.719299 
	C519.117981,649.734009 521.326660,649.241150 523.287598,647.312073 
	C530.294006,640.419556 537.342346,633.566528 544.510193,626.842957 
	C546.925049,624.577759 546.840088,621.843994 546.844055,619.024231 
	C546.880127,593.527588 546.927246,568.030884 546.909180,542.534241 
	C546.903748,534.861511 546.947815,534.855164 554.591675,534.675476 
	C562.232178,534.495789 569.904663,535.445374 577.511963,533.858582 
	C595.487732,530.108887 607.643738,514.995483 607.723877,496.158020 
	C607.807495,476.517548 596.243774,461.370483 577.953857,457.695587 
	C570.903687,456.278992 563.658813,457.223999 556.502686,457.139099 
	C551.004456,457.073853 545.501404,457.275055 540.006348,457.132690 
	C536.636169,457.045410 535.331848,458.160492 535.354614,461.742767 
	C535.663391,510.385742 535.690796,559.031128 536.200378,607.671631 
	C536.288818,616.110474 533.926880,622.207397 527.865051,628.338074 
	C520.667542,635.617188 513.449280,639.616028 502.971497,638.533508 
	C494.397369,637.647705 485.657867,638.419556 476.993896,638.298218 
	C475.276215,638.274170 472.281464,639.300842 472.412628,636.220093 
	C472.523560,633.615417 475.312653,633.957397 477.233673,633.950317 
	C487.732117,633.911621 498.237854,633.735840 508.726257,634.071350 
	C513.456299,634.222656 516.620544,632.338379 520.262634,629.555725 
	C528.884949,622.968018 531.456909,614.975464 531.312317,604.148865 
	C530.689392,557.496094 531.023499,510.830780 530.961731,464.170074 
	C530.958618,461.804962 531.530334,459.235107 529.699829,456.875977 
	C527.265259,458.383911 528.125183,460.572784 528.123596,462.329132 
	C528.078735,511.156769 528.093872,559.984436 528.104248,608.812134 
	C528.106750,620.346558 517.674744,630.864075 506.142578,630.898865 
	C496.143860,630.929016 486.143311,631.028809 476.147095,630.872498 
	C472.549652,630.816223 469.553986,631.615967 467.368164,634.542603 
	C464.927887,637.809998 461.697479,638.530457 457.748718,638.469421 
	C444.086639,638.258240 430.413483,638.119934 416.757599,638.467102 
	C411.309021,638.605591 407.068512,637.242554 403.537903,633.145569 
	C401.586273,630.880920 399.287018,628.919189 397.247528,626.725098 
	C396.458557,625.876343 395.808716,624.704712 396.846497,623.599976 
	C398.008606,622.362915 399.269318,622.751160 400.343445,623.792908 
	C402.615814,625.996765 404.910278,628.184265 407.070312,630.495605 
	C409.391083,632.978943 412.096283,633.908936 415.525177,633.874451 
	C429.355408,633.735352 443.189178,633.728210 457.018799,633.901306 
	C460.510559,633.944885 463.179718,632.938538 465.290863,630.266052 
	C467.263184,627.769348 469.718628,626.669373 473.001831,626.449829 
	C484.658203,625.670166 496.322052,626.244202 507.976990,625.925781 
	C514.982666,625.734375 523.640808,617.062378 523.637634,610.089172 
	C523.624817,581.937317 523.649597,553.785217 523.551270,525.633606 
	C523.475159,503.832245 523.220398,482.031555 523.079529,460.230347 
	C523.030884,452.703796 523.078369,452.701843 530.383362,452.679413 
	C544.375183,452.636414 558.389465,452.074677 572.353638,452.675964 
	C593.145630,453.571381 608.155212,467.283295 611.914856,487.732727 
	C616.035461,510.145508 602.185059,532.370972 580.645935,537.917297 
	C572.940125,539.901550 565.070801,539.393799 557.270142,539.161621 
	C552.720276,539.026184 551.263855,540.340454 551.301819,545.053406 
	C551.505737,570.371582 551.299927,595.692871 551.402283,621.012390 
	C551.417603,624.804749 550.375854,627.614136 547.556641,630.224121 
	C539.979248,637.239014 532.589600,644.460327 525.244385,651.720093 
	C523.300354,653.641541 521.218323,654.344421 518.557739,654.341431 
	C481.728729,654.299255 444.899536,654.298584 408.070526,654.366455 
	C405.195892,654.371765 402.933960,653.532349 400.920013,651.526672 
	C395.489166,646.118164 390.018036,640.748962 384.492889,635.436951 
	C382.424774,633.448608 381.875214,631.175659 381.637878,628.332703 
	C381.184082,622.897156 383.727173,617.094482 379.585449,611.998352 
	C378.433228,610.580688 379.709869,609.039246 381.579407,609.006653 
	C386.240845,608.925354 390.906372,608.977478 395.568054,609.077759 
	C396.735260,609.102905 397.920197,609.502258 398.114471,610.981079 
	C398.259094,612.082153 397.656555,612.725098 396.849701,613.461548 
	C393.266998,616.731628 392.908539,626.995850 396.358063,630.592590 
	C399.468414,633.835754 402.890167,636.777954 406.101044,639.927856 
	C407.676880,641.473755 409.532257,641.746399 411.598358,641.744446 
	C445.760986,641.713074 479.923645,641.686768 514.086182,641.735535 
	C516.955505,641.739624 519.303162,640.964783 521.237732,638.883301 
	C521.350769,638.761719 521.483948,638.658875 521.607361,638.546936 
	C538.889893,622.883362 538.991028,622.883545 539.030396,599.485962 
	C539.104431,555.491821 539.049622,511.497528 539.046875,467.503296 
	C539.046448,460.541290 539.432739,459.922821 546.290527,460.013641 
	C555.440186,460.134857 564.609375,459.192657 573.741943,460.511993 
	C593.421265,463.355072 605.104370,478.166840 604.325134,499.350433 
	C603.726257,515.630432 588.529053,530.129700 570.858032,531.184082 
	C567.369446,531.392273 563.859741,531.221069 560.362488,531.319519 
	C557.334534,531.404663 555.621887,530.308350 555.704041,526.999207 
	C555.807434,522.835449 555.796204,518.667175 555.742249,514.502014 
	C555.709229,511.955780 556.913574,510.881287 559.383362,510.890564 
	C563.048157,510.904297 566.725159,511.016876 570.375854,510.772491 
	C578.382507,510.236481 584.744080,503.312195 584.635193,495.484589 
	C584.521301,487.287537 578.418823,481.265686 569.887146,481.044128 
	C566.557495,480.957642 563.222412,481.101410 559.889771,481.104370 
	C558.183044,481.105865 556.316956,481.072693 556.143494,478.798035 
	C555.984558,476.715027 557.791626,476.490845 559.238953,476.311737 
	C565.235718,475.569580 571.245361,475.459595 577.017639,477.530945 
	C584.760010,480.309265 590.063354,489.751740 588.781860,498.093750 
	C587.321472,507.600861 580.248230,514.627136 571.374756,515.290955 
	C569.218689,515.452271 567.031250,515.528503 564.880798,515.358337 
	C560.876892,515.041687 559.353821,516.494019 559.228943,520.738159 
	C559.085266,525.622681 560.705017,526.947571 565.494995,526.862793 
	C583.788696,526.538879 594.344299,519.577148 598.900391,504.229919 
	C604.674744,484.778961 591.530762,465.918915 571.331116,465.053802 
	C562.385010,464.670654 553.408752,464.989166 544.451294,464.989166 
	C543.199768,468.173126 544.100281,470.824371 544.096680,473.406494 
	C544.034180,518.233459 544.048523,563.060486 543.983521,607.887451 
	C543.977234,612.211060 543.510925,616.532288 543.353455,620.858093 
	C543.288025,622.655640 542.579224,624.054443 541.332520,625.261719 
	C535.110352,631.287292 528.835144,637.259521 522.698486,643.371033 
	C520.385315,645.674866 517.803833,646.377563 514.608826,646.370605 
	C480.612854,646.296387 446.616333,646.267883 412.620850,646.421387 
	C408.440155,646.440247 405.198486,645.327209 402.445190,642.293823 
	C401.331238,641.066589 400.069000,639.936523 398.732544,638.955139 
	C392.122772,634.100952 388.123016,628.130432 389.681213,619.442078 
	C389.977264,617.791321 390.216339,615.768250 388.524384,614.490295 
	C388.013794,614.578247 387.491669,614.531250 387.405518,614.702942 
	C384.726166,620.044434 386.209961,630.996094 390.126068,635.069885 
	C404.199280,649.709778 404.199280,649.713379 424.511871,649.711060 
	C442.507935,649.708984 460.504028,649.697937 479.000092,649.690979 
z"/>
<path fill="#000000" opacity="1.000000" stroke="none" 
	d="
M362.026428,403.965179 
	C361.834869,401.986023 360.507324,401.130493 359.372986,400.206451 
	C356.880371,398.175934 357.185242,396.124115 358.810486,393.678619 
	C360.453094,391.206909 362.324249,390.906219 364.733734,392.332367 
	C366.477356,393.364410 368.251770,394.496735 370.196564,392.771179 
	C372.089905,391.091248 370.776703,389.413940 370.048950,387.808167 
	C369.099030,385.712189 368.325409,383.801056 371.052216,382.319183 
	C373.354858,381.067780 375.492310,379.915833 377.787231,382.316071 
	C378.918182,383.498962 379.989685,384.840729 381.819489,385.214325 
	C383.995148,384.521057 383.984802,382.376923 384.313049,380.740051 
	C384.899994,377.812927 386.709961,377.070251 389.303162,376.969055 
	C391.932861,376.866394 393.112640,378.252563 393.920258,380.576508 
	C396.063293,386.743042 396.263794,386.856384 401.005157,382.432220 
	C403.743500,379.877014 405.787109,381.408508 408.110260,382.753021 
	C410.500702,384.136444 410.609711,385.983917 409.501221,388.268982 
	C408.806885,389.700195 407.442566,391.300964 409.012909,392.819702 
	C410.612732,394.367004 412.176971,392.831451 413.520996,392.093536 
	C416.442505,390.489532 418.108582,391.711578 419.646545,394.165588 
	C421.097290,396.480499 422.064972,398.510742 419.389069,400.686798 
	C418.030640,401.791443 416.081146,402.932373 416.618408,405.065186 
	C417.231903,407.500458 419.644287,406.644562 421.295166,406.876160 
	C424.397217,407.311279 425.390350,408.944977 425.404083,411.960205 
	C425.418274,415.072449 424.723022,416.828949 421.210938,417.402344 
	C416.079163,418.240234 415.508881,420.109009 419.141815,423.768463 
	C421.532593,426.176697 422.054901,428.278656 420.155334,431.205048 
	C418.216278,434.192322 416.038818,433.254181 413.694580,432.095917 
	C412.273712,431.393860 410.894989,431.022858 409.552246,432.283936 
	C408.044891,433.699738 408.311218,435.255768 409.186920,436.822845 
	C410.764435,439.645813 410.320648,441.603210 407.362396,443.410248 
	C404.360138,445.244141 402.272278,445.161621 400.218079,442.203705 
	C399.328491,440.922791 398.313507,439.095276 396.306885,439.741516 
	C394.409210,440.352692 394.446594,442.290100 394.264435,443.940521 
	C393.916504,447.092224 392.747070,449.158722 389.024384,449.277283 
	C385.278809,449.396484 384.785950,446.995819 384.097015,444.300232 
	C382.636902,438.587250 381.489838,438.254669 377.167725,442.640594 
	C375.102173,444.736633 373.404694,444.710602 371.042999,443.309814 
	C368.506073,441.805023 368.153137,440.001709 369.203583,437.450043 
	C369.852905,435.872803 371.426025,434.208832 369.643555,432.434418 
	C367.726440,430.525940 365.896606,432.123962 364.147339,432.826019 
	C361.688782,433.812744 359.670258,433.898346 358.245850,431.187653 
	C357.026276,428.866821 356.193695,426.951599 358.581024,424.537079 
	C363.184784,419.880768 362.867004,418.916779 356.295868,417.173187 
	C352.761719,416.235413 352.725769,413.910583 352.731812,411.087250 
	C352.738159,408.099274 354.177094,406.895264 356.979584,406.780365 
	C358.984863,406.698181 361.061310,406.630737 362.026428,403.965179 
M390.375549,428.658142 
	C391.036469,428.609070 391.718567,428.648895 392.355133,428.497437 
	C400.772675,426.495361 406.488403,419.176605 405.512085,411.688293 
	C404.424072,403.343689 397.585510,397.380951 389.064331,397.346985 
	C381.508026,397.316864 374.516266,403.011292 373.427124,410.082642 
	C372.124603,418.539551 377.174011,425.735809 386.140717,428.131134 
	C387.249603,428.427338 388.421204,428.488983 390.375549,428.658142 
z"/>
<path fill="#000000" opacity="1.000000" stroke="none" 
	d="
M378.672058,583.626953 
	C369.760040,584.539856 367.652496,582.690491 367.639069,574.305664 
	C367.620697,562.809875 367.756134,551.312134 367.567932,539.819397 
	C367.494263,535.321533 369.131409,533.547180 373.695648,533.613464 
	C384.020813,533.763245 394.351685,533.597961 404.679169,533.473694 
	C408.433685,533.428528 410.242065,535.125549 410.240479,538.860901 
	C410.235138,551.356201 410.261200,563.851501 410.244690,576.346802 
	C410.238434,581.061707 407.810760,583.347778 403.102142,583.368896 
	C395.106628,583.404785 387.111359,583.503723 378.672058,583.626953 
z"/>
<path fill="#000000" opacity="1.000000" stroke="none" 
	d="
M819.470459,576.439636 
	C816.615051,579.930908 814.977112,577.573425 813.532715,575.266907 
	C808.227478,566.794983 803.023438,558.259766 797.742126,549.772766 
	C793.985657,543.736206 790.166321,537.738770 786.519104,531.952393 
	C787.460266,529.949463 789.111328,529.803467 790.403198,529.128113 
	C803.170410,522.454407 812.370605,505.230072 810.459778,491.542572 
	C808.000671,473.926819 796.417419,460.422516 780.317139,457.816803 
	C769.964905,456.141388 759.362549,457.207764 748.871765,457.165833 
	C737.289246,457.119507 737.283386,457.175903 737.257507,468.827362 
	C737.223389,484.160126 737.199341,499.492859 737.170715,514.825623 
	C737.170410,514.992249 737.116272,515.178467 737.171997,515.322815 
	C740.770142,524.650940 736.199707,533.940063 737.061218,543.356079 
	C737.953369,553.106689 737.244873,563.003845 737.236206,572.836853 
	C737.235901,573.170166 737.251831,573.504822 737.228271,573.836548 
	C737.113159,575.453186 737.466248,577.603088 735.109253,577.657349 
	C732.367188,577.720581 732.848511,575.335022 732.725281,573.593506 
	C732.643127,572.432617 732.705872,571.261353 732.705505,570.094727 
	C732.693909,534.429077 732.697021,498.763428 732.630798,463.097900 
	C732.627197,461.160583 733.493408,458.754578 730.923950,457.327881 
	C728.397034,458.922546 729.334351,461.316895 729.329651,463.273102 
	C729.242920,499.271912 729.258362,535.270935 729.141113,571.269592 
	C729.133911,573.476501 730.504700,577.370300 727.063477,577.435547 
	C722.888916,577.514587 724.736328,573.362000 724.729614,571.133972 
	C724.617004,533.802368 724.746948,496.469849 724.572021,459.138733 
	C724.548828,454.184113 725.824585,452.458069 730.987305,452.569611 
	C745.812927,452.889832 760.652405,452.508057 775.482056,452.716705 
	C798.992371,453.047455 818.198547,476.564575 814.780884,499.871521 
	C812.676880,514.219543 805.780457,525.049500 792.823120,533.009094 
	C801.809570,547.573608 810.606079,561.830139 819.470459,576.439636 
z"/>
<path fill="#000000" opacity="1.000000" stroke="none" 
	d="
M850.266724,476.899200 
	C858.847168,475.236938 867.183350,476.091278 875.483459,475.900513 
	C883.139832,475.724548 890.805359,475.895966 898.466003,475.982758 
	C900.268494,476.003174 902.567322,475.922852 902.585571,478.479584 
	C902.604492,481.140717 900.179138,480.882751 898.461914,480.897095 
	C885.638184,481.004120 872.810669,481.183899 859.990845,480.963501 
	C855.369141,480.884064 853.784302,482.528931 853.948975,487.014771 
	C854.205383,494.001282 854.034180,501.002625 854.108032,507.997009 
	C854.150940,512.057129 852.867249,515.071960 849.434387,517.794250 
	C837.212158,527.486206 837.332153,527.639587 837.301880,543.502441 
	C837.290710,549.331787 837.472290,555.169189 837.218201,560.987671 
	C837.054199,564.743530 838.498718,565.932617 842.129211,565.910034 
	C859.949585,565.799316 877.771545,565.796814 895.591309,565.948486 
	C898.077637,565.969666 902.513306,564.454712 902.447571,568.466614 
	C902.384766,572.297729 898.145447,570.225952 895.899353,570.246765 
	C876.747314,570.424683 857.591858,570.243103 838.440002,570.430298 
	C834.156799,570.472168 832.569275,569.268860 832.636536,564.800720 
	C832.882141,548.481873 832.847229,532.157532 832.760315,515.836121 
	C832.742432,512.486633 833.742004,510.096710 836.675171,508.398682 
	C840.031982,506.455322 841.168945,503.424408 841.075806,499.552216 
	C840.871643,491.063446 841.082703,482.564819 840.890198,474.075562 
	C840.790771,469.690826 842.290894,467.804352 846.956299,467.863800 
	C863.608826,468.076050 880.265381,467.975128 896.920410,467.995728 
	C897.586365,467.996552 898.256226,467.987885 898.917419,468.053009 
	C900.579346,468.216644 902.572693,468.226868 902.659851,470.462830 
	C902.752991,472.852417 900.667664,472.818604 899.050110,472.857300 
	C895.055237,472.952850 891.039673,473.137756 887.062866,472.856781 
	C875.406311,472.033081 863.762634,473.522278 852.126526,472.912201 
	C847.249634,472.656494 845.793884,474.559296 845.882874,479.279999 
	C846.033325,487.259796 845.388916,495.252228 845.430664,503.237518 
	C845.448242,506.605774 843.521484,508.366150 841.388855,510.236664 
	C836.955322,514.125122 836.953247,514.122803 837.728882,520.486511 
	C845.375732,517.674133 848.485413,513.227539 849.094849,505.453583 
	C849.734253,497.296783 849.387939,489.162933 849.261780,481.017792 
	C849.240845,479.669922 849.205383,478.351471 850.266724,476.899200 
z"/>
<path fill="#000000" opacity="1.000000" stroke="none" 
	d="
M699.495972,531.349487 
	C692.135193,507.777740 684.856567,484.600311 677.716125,461.380402 
	C676.793396,458.379730 675.437561,457.018188 672.127991,457.107574 
	C663.803894,457.332336 655.466736,457.376465 647.142944,457.166840 
	C643.478027,457.074524 641.819397,458.531586 640.746033,461.905426 
	C628.991577,498.851532 617.123901,535.761597 605.288147,572.681885 
	C605.034119,573.474243 604.737000,574.258423 604.557007,575.067932 
	C604.103455,577.107605 603.097839,578.726807 600.814270,577.857910 
	C598.571167,577.004395 599.667236,575.020752 600.132629,573.541504 
	C604.926819,558.303772 609.782776,543.085449 614.617493,527.860413 
	C621.920715,504.861816 629.319397,481.892609 636.437073,458.836670 
	C637.829834,454.325348 639.832581,452.384583 644.819946,452.573853 
	C654.966492,452.958893 665.140381,452.707550 675.301208,452.578644 
	C678.133179,452.542725 679.972656,453.232941 680.917542,456.208221 
	C693.556885,496.007812 706.274658,535.782593 717.943787,575.881958 
	C718.067993,576.308594 717.855286,576.833252 717.788025,577.414185 
	C714.371033,578.978088 713.472473,576.902039 712.657288,574.211609 
	C708.362183,560.036011 703.975647,545.888184 699.495972,531.349487 
z"/>
<path fill="#000000" opacity="1.000000" stroke="none" 
	d="
M485.492218,542.485901 
	C485.071625,533.027344 481.393677,529.399231 472.539154,529.362915 
	C468.053345,529.344482 463.567047,529.478516 459.080933,529.481873 
	C437.132599,529.498352 417.005402,503.562378 426.657745,477.670685 
	C433.935944,458.147430 452.811890,446.691711 473.147217,448.796600 
	C493.346649,450.887390 510.899261,467.139252 514.224304,486.882568 
	C514.437622,488.149048 514.892578,489.492798 514.053833,490.911621 
	C510.560394,492.409637 510.067719,490.131439 509.461548,487.398560 
	C505.300140,468.637604 493.509735,457.628235 474.854828,453.747467 
	C460.099854,450.678009 442.717285,458.525513 434.500122,471.914612 
	C426.084839,485.626373 426.953369,500.678009 437.105621,513.289307 
	C444.061493,521.929932 453.174713,525.857788 464.310944,525.166809 
	C468.122131,524.930359 471.975494,524.866516 475.779846,525.138977 
	C482.436279,525.615662 486.826508,529.328308 489.176727,535.490845 
	C491.531982,541.666565 489.690887,547.194092 485.522705,551.655273 
	C479.252472,558.366211 471.260925,560.614563 462.278992,558.389038 
	C453.551270,556.226379 448.479797,550.362976 445.910248,541.717712 
	C449.451569,539.686462 450.666138,541.356079 451.921021,544.226135 
	C454.989014,551.242859 461.325836,555.288147 468.563934,554.583801 
	C476.219208,553.838928 482.892303,551.210571 485.492218,542.485901 
z"/>
<path fill="#000000" opacity="1.000000" stroke="none" 
	d="
M500.293091,510.662109 
	C512.478821,522.359009 516.563049,536.269348 511.516418,551.902405 
	C505.957428,569.122498 493.143524,579.035950 475.595306,582.149597 
	C451.573212,586.411926 428.394379,570.548767 422.917084,546.774170 
	C422.656128,545.641479 422.554779,544.472534 422.362946,543.323242 
	C422.151642,542.057068 422.266052,540.915222 423.775543,540.618591 
	C425.104248,540.357422 426.036011,540.910095 426.377594,542.293396 
	C426.854797,544.226013 427.273926,546.176086 427.834778,548.084290 
	C432.874817,565.233215 449.942841,578.797363 467.678284,578.419800 
	C490.165070,577.941040 510.283386,561.085754 508.821838,536.912659 
	C507.882782,521.381226 493.998016,507.020660 478.444458,506.262695 
	C474.292297,506.060364 470.120026,506.260773 465.957062,506.292816 
	C455.494202,506.373413 448.837372,501.239319 447.838074,492.306458 
	C446.880524,483.746674 453.949463,474.684204 463.079803,472.766449 
	C474.190247,470.432800 484.702759,475.802948 489.226288,486.187683 
	C489.911072,487.759705 491.407593,489.816345 489.016327,490.924896 
	C486.638824,492.027039 486.076477,489.680359 485.273193,488.049042 
	C480.376526,478.104645 470.104767,474.032410 460.742065,478.263153 
	C456.109985,480.356262 453.447662,484.036652 452.531433,488.888794 
	C451.171448,496.090759 456.132477,501.575256 464.200806,501.619904 
	C470.173859,501.652954 476.177124,500.647308 482.102570,501.989685 
	C488.676758,503.478973 494.758698,506.102936 500.293091,510.662109 
z"/>
<path fill="#000000" opacity="1.000000" stroke="none" 
	d="
M478.604340,568.731567 
	C493.663086,563.253113 501.570557,551.796082 500.783386,537.055908 
	C500.140137,525.010254 489.925873,514.682556 477.893188,514.188171 
	C471.746948,513.935608 465.509521,514.712646 459.443268,513.967163 
	C449.177368,512.705627 442.338043,505.282928 440.247864,494.399170 
	C438.478455,485.185822 443.654541,474.232330 452.353210,468.781860 
	C468.757690,458.503021 491.852203,467.139313 497.529175,485.688843 
	C498.084229,487.502441 499.547241,489.928802 497.144592,490.942474 
	C494.034637,492.254517 493.929260,489.104279 493.233368,487.201294 
	C486.330475,468.324066 463.869965,462.396515 450.541229,476.121948 
	C444.498840,482.344177 442.692596,489.929138 445.812622,498.227356 
	C448.605896,505.656555 455.031189,509.600128 463.990845,509.663971 
	C468.140686,509.693542 472.301056,509.338226 476.440582,509.521240 
	C488.992767,510.076294 497.895508,516.484009 502.865540,527.723328 
	C507.952209,539.226501 505.947296,550.333252 498.296997,560.117249 
	C488.554535,572.576965 475.436707,577.233887 460.156342,573.819275 
	C444.465454,570.312866 434.896912,559.815002 430.473328,544.513428 
	C430.036987,543.004150 429.014618,541.057739 431.603973,540.501648 
	C433.951660,539.997437 434.136566,541.953369 434.613800,543.571350 
	C438.000824,555.054077 444.554108,563.880981 456.094910,568.156006 
	C463.320129,570.832458 470.777802,570.553833 478.604340,568.731567 
z"/>
<path fill="#000000" opacity="1.000000" stroke="none" 
	d="
M615.730530,565.641235 
	C614.710327,568.872803 613.904785,571.758972 612.941711,574.591553 
	C612.367554,576.280334 611.835999,578.566223 609.368835,577.818176 
	C606.520569,576.954651 608.208191,574.830444 608.700623,573.280884 
	C617.414856,545.860779 626.163574,518.451538 634.932190,491.048767 
	C637.720093,482.336578 640.743896,473.696106 643.337891,464.927582 
	C644.306030,461.654694 646.079895,460.123413 649.294312,460.092773 
	C655.787476,460.030914 662.283020,460.133423 668.774292,460.002472 
	C672.911987,459.919006 673.994873,462.762970 675.058289,465.870453 
	C682.599426,487.905792 689.241943,510.223724 696.092102,532.477112 
	C700.249390,545.982117 704.569519,559.436890 708.798157,572.920044 
	C709.230713,574.299255 710.151733,575.625916 709.366638,577.462585 
	C706.454041,578.474121 705.428589,576.756958 704.646057,574.245117 
	C697.422485,551.057556 690.152710,527.884277 682.882263,504.711304 
	C679.147949,492.809021 675.322815,480.934662 671.679749,469.004608 
	C670.801025,466.126801 669.247131,465.015869 666.270569,465.119232 
	C661.781311,465.275177 657.272034,465.266998 652.787659,465.025177 
	C649.182617,464.830750 647.464050,466.293365 646.380920,469.733063 
	C637.039612,499.398529 627.544006,529.015442 618.087463,558.644531 
	C617.379395,560.863037 616.616394,563.064087 615.730530,565.641235 
z"/>
<path fill="#000000" opacity="1.000000" stroke="none" 
	d="
M824.704773,514.999878 
	C824.701599,495.680084 824.760742,476.859894 824.642212,458.040833 
	C824.619202,454.384735 825.481018,452.589569 829.614075,452.606628 
	C852.584106,452.701508 875.554993,452.566803 898.525635,452.562683 
	C900.186523,452.562378 902.733093,451.683075 902.890991,454.436859 
	C903.068420,457.531586 900.277710,456.939331 898.470947,456.947510 
	C877.653076,457.041840 856.834717,457.038635 836.016541,457.082428 
	C829.341736,457.096466 829.328674,457.124939 829.326782,463.665863 
	C829.316895,498.307648 829.433105,532.950317 829.182678,567.590332 
	C829.144348,572.887573 830.992859,574.023315 835.787964,573.968140 
	C855.437866,573.741943 875.091492,573.827087 894.743713,573.799377 
	C895.909485,573.797791 897.079407,573.751709 898.240112,573.831665 
	C899.997192,573.952820 902.350098,573.542542 902.267395,576.282837 
	C902.180054,579.177063 899.657654,578.326477 898.049133,578.330200 
	C875.398987,578.382263 852.748291,578.283020 830.098694,578.407715 
	C826.032043,578.430115 824.588684,577.121948 824.626465,572.958374 
	C824.800659,553.806885 824.704346,534.652954 824.704773,514.999878 
z"/>
<path fill="#000000" opacity="1.000000" stroke="none" 
	d="
M491.514069,531.679443 
	C486.534393,523.054016 479.038727,520.620117 470.055878,521.843872 
	C449.931671,524.585510 433.637238,512.391968 432.209808,492.209595 
	C431.319580,479.623108 437.691315,469.672913 448.147705,462.897827 
	C469.905121,448.800415 498.906738,460.384583 505.341095,485.526886 
	C505.823090,487.410309 507.614044,490.158356 504.527252,490.983612 
	C501.395569,491.820862 501.546021,488.475708 501.037811,486.614014 
	C495.325775,465.690399 473.770020,455.331055 454.169952,464.190399 
	C437.205811,471.858246 428.808960,496.216278 445.917236,511.315735 
	C450.587372,515.437500 455.959564,517.746155 462.265533,517.686523 
	C466.761841,517.643982 471.259949,517.560669 475.754852,517.637146 
	C491.202026,517.900024 501.753967,533.373352 496.238617,547.868164 
	C491.672394,559.868530 482.552277,566.099854 469.950165,566.804504 
	C457.088776,567.523621 447.572845,561.578003 441.132599,550.606934 
	C439.878204,548.469971 438.992706,546.098877 438.104370,543.771851 
	C437.623657,542.512512 437.427582,541.052246 439.234924,540.513245 
	C440.713959,540.072021 441.870819,540.571838 442.478424,542.036133 
	C443.306763,544.032410 444.000031,546.088562 444.902527,548.049438 
	C449.503387,558.046082 460.161530,563.934143 471.035919,562.544250 
	C482.928772,561.024109 490.723022,554.134155 493.056335,543.216736 
	C493.896088,539.287659 493.004272,535.645020 491.514069,531.679443 
z"/>
<path fill="#000000" opacity="1.000000" stroke="none" 
	d="
M409.996429,487.381775 
	C409.037659,491.052826 406.709656,492.293091 403.574646,492.300507 
	C394.108490,492.322937 384.641724,492.368042 375.176270,492.284149 
	C371.053131,492.247589 368.654449,490.225037 368.686981,485.833862 
	C368.718964,481.516144 368.771729,477.195404 368.651367,472.880615 
	C368.528290,468.468018 370.945923,466.265350 374.946564,466.156860 
	C384.405090,465.900391 393.873871,465.900970 403.336823,465.984772 
	C407.756683,466.023895 409.972076,468.668823 410.053070,472.997833 
	C410.140045,477.644897 410.067108,482.294952 409.996429,487.381775 
z"/>
<path fill="#000000" opacity="1.000000" stroke="none" 
	d="
M888.739624,517.681458 
	C890.771912,517.867737 892.932129,517.370972 892.813843,519.926147 
	C892.706177,522.251526 890.685913,522.148499 889.047058,522.173035 
	C884.549988,522.240479 880.051086,522.188721 875.553833,522.249878 
	C873.976257,522.271362 872.263977,521.903992 870.842224,523.125366 
	C871.585938,525.630493 873.550598,524.903809 875.011230,524.991638 
	C879.828796,525.281494 884.657532,525.380188 889.477600,525.634583 
	C890.860107,525.707581 892.893677,525.230896 892.950256,527.430481 
	C893.017578,530.048706 890.785217,529.413147 889.254028,529.438721 
	C884.760071,529.513611 880.264160,529.520996 875.769592,529.483398 
	C873.061096,529.460693 870.760498,529.734314 870.641907,533.282288 
	C870.554932,535.883179 868.765991,536.473694 866.483948,536.393127 
	C864.154663,536.310974 861.798401,536.582153 859.492371,536.337341 
	C854.837341,535.843140 852.927795,537.400330 853.178101,542.412537 
	C853.558105,550.020020 853.251587,550.022583 860.947815,549.999329 
	C872.609070,549.963989 884.270264,549.933655 895.931519,549.941284 
	C897.586914,549.942383 899.257141,550.072693 900.892212,550.325623 
	C901.943848,550.488281 902.652222,551.247009 902.666321,552.413940 
	C902.681580,553.676208 901.835754,554.115051 900.760681,554.263428 
	C900.267700,554.331543 899.764221,554.347412 899.265503,554.347290 
	C883.772522,554.343933 868.279419,554.295471 852.786743,554.362305 
	C849.706726,554.375549 848.670654,552.977234 848.732483,550.105652 
	C848.825623,545.776306 848.833435,541.441833 848.736572,537.112732 
	C848.666016,533.960083 849.977966,532.364685 853.189697,532.696167 
	C857.206726,533.110901 857.856323,530.879089 857.773987,527.512329 
	C857.602844,520.519287 857.795898,513.517517 857.633362,506.524109 
	C857.557068,503.240417 858.516357,501.608429 862.114258,501.663513 
	C871.107910,501.801270 880.105347,501.669647 889.100952,501.715729 
	C890.672607,501.723785 892.826477,501.376648 892.934875,503.789093 
	C893.060608,506.585510 890.707886,506.243774 888.967468,506.255341 
	C881.804565,506.302948 874.635742,506.409088 867.479858,506.170105 
	C863.673340,506.042999 861.989868,507.152313 862.202881,511.221313 
	C862.481079,516.537842 862.230164,521.880310 862.309753,527.210083 
	C862.332703,528.749451 861.700623,530.645630 864.094543,531.645874 
	C867.149658,530.039551 865.804749,527.065735 865.845642,524.700378 
	C865.964478,517.819519 865.979004,517.695129 872.780029,517.682190 
	C877.944397,517.672363 883.108826,517.679077 888.739624,517.681458 
z"/>
<path fill="#000000" opacity="1.000000" stroke="none" 
	d="
M795.673828,469.303772 
	C812.273254,487.366852 809.714844,513.083984 790.387817,525.313782 
	C790.106262,525.492004 789.847656,525.733582 789.541626,525.841797 
	C787.644409,526.512695 785.388977,529.209045 783.848572,526.877991 
	C782.073425,524.191772 785.593323,523.524475 787.171143,522.502991 
	C805.330750,510.746460 807.691895,486.339539 791.933899,471.923248 
	C787.380005,467.757111 782.096375,465.204224 775.730774,465.139679 
	C767.238831,465.053558 758.748169,464.811554 750.258179,464.587860 
	C746.424744,464.486847 745.093689,466.192261 745.154663,470.060150 
	C745.356873,482.887817 745.241516,495.720490 745.248108,508.551239 
	C745.248657,509.551056 745.328247,510.558167 745.234680,511.549011 
	C745.074097,513.247559 745.817871,515.792114 743.159241,515.853516 
	C740.133972,515.923462 740.846069,513.164795 740.734253,511.324677 
	C740.593018,509.000336 740.698242,506.660980 740.697083,504.328125 
	C740.690552,491.497375 740.830750,478.663879 740.594238,465.837372 
	C740.516113,461.603271 741.682556,459.771362 746.155518,459.884064 
	C756.637878,460.148102 767.145264,459.527527 777.600769,460.719910 
	C784.451416,461.501190 790.272949,464.575012 795.673828,469.303772 
z"/>
<path fill="#000000" opacity="1.000000" stroke="none" 
	d="
M587.298584,474.626099 
	C596.726624,484.107910 599.232971,495.351074 594.583252,506.347595 
	C590.109009,516.929138 580.113770,523.475464 568.628418,523.223083 
	C566.810547,523.183105 563.933960,524.046814 563.841797,521.146973 
	C563.730103,517.634766 566.885437,518.909912 568.768433,518.865417 
	C579.787537,518.604492 588.352905,512.434998 591.256958,502.498047 
	C594.254211,492.242340 590.377380,481.479950 581.570679,475.880859 
	C575.924866,472.291382 569.488953,472.283539 563.195374,472.560303 
	C552.117310,473.047424 552.110901,473.238495 552.093506,484.266022 
	C552.073364,497.089172 552.109131,509.912476 552.049805,522.735413 
	C552.041199,524.582825 552.669556,527.352844 549.588501,527.159302 
	C546.936768,526.992676 547.736511,524.406616 547.707275,522.742676 
	C547.420532,506.437805 547.319092,490.128906 546.903687,473.827789 
	C546.794006,469.523132 548.142761,467.756622 552.555542,467.934387 
	C558.539917,468.175415 564.551086,467.776886 570.533142,468.045471 
	C576.659546,468.320526 582.209656,470.501251 587.298584,474.626099 
z"/>
<path fill="#000000" opacity="1.000000" stroke="none" 
	d="
M771.588867,518.663696 
	C782.129639,517.774841 789.192810,512.690308 792.892151,503.263733 
	C796.347839,494.458374 794.193970,486.576904 788.203491,479.621552 
	C783.499512,474.159943 777.269775,472.337646 770.257324,472.676056 
	C767.765991,472.796265 765.272705,472.968811 762.781250,472.953644 
	C761.523804,472.946014 760.524597,472.221283 760.430969,470.827759 
	C760.332458,469.360687 761.357605,468.774200 762.600159,468.582123 
	C772.902893,466.989685 782.653625,467.935455 790.505798,475.664185 
	C798.431030,483.464844 800.972351,492.864471 797.539673,503.553558 
	C794.206604,513.932495 787.268555,520.491699 776.354370,522.380798 
	C768.748962,523.697144 761.054138,522.862915 753.401855,523.080017 
	C749.569275,523.188782 748.671265,520.993286 748.690308,517.645569 
	C748.757629,505.814667 748.655334,493.982758 748.727600,482.151917 
	C748.738403,480.383301 747.853882,477.411194 750.883057,477.578644 
	C753.405151,477.718048 753.112549,480.558594 753.134216,482.451965 
	C753.247009,492.282593 753.234436,502.114655 753.263611,511.946228 
	C753.266602,512.946045 753.317444,513.950562 753.240967,514.944763 
	C753.021118,517.801147 754.439880,518.776978 757.138306,518.718262 
	C761.802246,518.616699 766.469666,518.678406 771.588867,518.663696 
z"/>
<path fill="#000000" opacity="1.000000" stroke="none" 
	d="
M645.264771,530.191040 
	C646.947388,532.668823 648.748352,534.705811 649.974365,537.044312 
	C652.601929,542.056335 656.652405,543.351990 661.988220,542.842163 
	C664.927856,542.561218 667.188110,541.941162 668.273071,538.996155 
	C669.432190,535.850037 671.863098,535.050354 674.984314,534.942993 
	C688.002014,534.495422 688.029175,534.432617 692.093933,546.936768 
	C695.374268,557.027954 698.573547,567.145630 701.827759,577.310852 
	C698.026367,579.233582 696.973450,576.932495 696.078735,574.149963 
	C692.870605,564.172180 689.640015,554.201355 686.351685,544.249756 
	C685.591064,541.947937 685.169739,539.035828 681.717712,539.357361 
	C678.031128,539.700623 673.370178,537.453613 671.388123,542.800659 
	C670.010437,546.517212 667.307556,547.082947 663.614136,547.494507 
	C655.405396,548.409302 650.541870,545.276855 645.559204,538.604614 
	C640.633301,532.008423 639.818115,526.732117 642.794250,519.388245 
	C646.722839,509.694122 649.545349,499.554138 652.943420,489.640076 
	C653.486816,488.054688 653.634827,485.317993 656.065308,485.871307 
	C659.050720,486.550995 657.597656,489.259247 657.091858,490.882904 
	C653.579468,502.158264 649.856628,513.367981 646.216797,524.603821 
	C645.660645,526.320618 644.671448,527.957642 645.264771,530.191040 
z"/>
<path fill="#000000" opacity="1.000000" stroke="none" 
	d="
M740.753540,570.860229 
	C740.753784,557.724609 740.909302,545.068848 740.668945,532.420532 
	C740.585449,528.023010 742.073059,526.467957 746.419495,526.657898 
	C752.401306,526.919312 758.403564,526.731995 764.396851,526.697693 
	C766.467102,526.685852 768.378845,526.918152 769.721802,528.769043 
	C780.949158,544.242310 790.208862,560.966248 801.170410,576.969788 
	C797.403687,579.169678 795.840088,577.339417 794.320801,574.914001 
	C786.811340,562.925537 778.995483,551.119934 771.807495,538.942932 
	C768.375977,533.129578 764.390381,530.663452 757.418457,531.083374 
	C745.259277,531.815674 745.241516,531.360352 745.272888,543.761841 
	C745.297302,553.417908 745.341248,563.074524 745.260376,572.729858 
	C745.245178,574.543579 746.193359,577.443726 743.401245,577.665161 
	C740.110474,577.926025 741.011169,574.828308 740.764587,572.840210 
	C740.703491,572.348206 740.754028,571.842468 740.753540,570.860229 
z"/>
<path fill="#000000" opacity="1.000000" stroke="none" 
	d="
M690.247070,577.872437 
	C686.592529,574.148499 686.338562,569.293091 684.734985,564.997864 
	C682.781799,559.766479 681.147705,554.415955 678.785278,547.351929 
	C675.519104,557.084473 668.644348,555.229065 662.499146,555.347473 
	C662.166565,555.353882 661.833801,555.352844 661.501160,555.351929 
	C653.195679,555.329224 643.904541,557.602966 641.118469,545.879944 
	C638.448853,547.145325 638.423767,549.157837 637.882812,550.776855 
	C635.250244,558.655334 632.762817,566.582275 630.123047,574.458191 
	C629.515137,576.271790 628.905640,578.812256 626.182495,577.831177 
	C623.533875,576.877014 625.168274,574.742981 625.658875,573.173523 
	C628.732056,563.341919 631.851929,553.524414 635.036194,543.728149 
	C636.558777,539.043884 641.242554,537.904602 643.284668,542.261414 
	C647.514526,551.286072 654.626160,551.238037 662.718323,550.980530 
	C668.092590,550.809448 672.487305,550.712097 675.588989,545.091492 
	C677.865662,540.965881 681.457214,541.784058 683.031189,546.292053 
	C686.262146,555.545715 689.297546,564.867615 692.417114,574.160217 
	C693.038391,576.010864 693.715027,577.874390 690.247070,577.872437 
z"/>
<path fill="#000000" opacity="1.000000" stroke="none" 
	d="
M630.341431,547.199219 
	C627.344238,556.601440 624.406555,565.605469 621.560425,574.638428 
	C620.765686,577.160645 619.803345,579.024597 616.312927,577.357239 
	C616.973694,571.953369 619.210327,566.936646 620.844421,561.806885 
	C629.319824,535.200378 638.026123,508.667480 646.520630,482.066986 
	C647.620667,478.622253 649.509216,475.871918 651.753357,473.170624 
	C653.611023,470.934631 655.580811,470.091919 658.261597,471.506409 
	C659.967590,472.406555 660.732605,473.812164 660.093201,475.636963 
	C659.143738,478.347015 656.965881,478.805939 654.417175,478.365326 
	C653.934204,478.281799 653.438599,478.271545 652.522644,478.189087 
	C645.167358,501.041443 637.801514,523.926697 630.341431,547.199219 
z"/>
<path fill="#000000" opacity="1.000000" stroke="none" 
	d="
M832.744629,494.770874 
	C832.745056,484.483093 832.848694,474.667206 832.692139,464.855469 
	C832.634460,461.242401 833.891602,459.766937 837.588074,459.791260 
	C857.714722,459.923889 877.842346,459.895203 897.969421,459.986786 
	C899.864990,459.995422 902.680969,459.686066 902.654541,462.398804 
	C902.623779,465.548859 899.608765,464.802277 897.615967,464.810730 
	C879.326172,464.888580 861.035583,464.957855 842.746216,464.855896 
	C838.737915,464.833557 837.111023,466.110382 837.243835,470.330078 
	C837.505249,478.638702 837.381897,486.963287 837.235107,495.278046 
	C837.201050,497.206390 838.354675,500.493134 835.375366,500.639099 
	C832.002502,500.804382 833.011902,497.396088 832.744629,494.770874 
z"/>
<path fill="#000000" opacity="1.000000" stroke="none" 
	d="
M895.852600,562.341553 
	C879.074951,562.350891 862.775635,562.241943 846.480225,562.447876 
	C842.196594,562.502075 840.481567,561.257996 840.684204,556.800354 
	C840.978516,550.328369 840.986084,543.819458 840.649658,537.350525 
	C840.402710,532.601746 841.522217,528.906067 845.747314,526.360046 
	C847.988159,525.009705 849.315796,522.428772 852.507324,521.247375 
	C854.446899,523.866882 855.154114,525.948303 851.316895,527.618469 
	C846.856628,529.559875 844.811829,532.784119 845.195679,537.854858 
	C845.571228,542.815613 845.509827,547.841125 845.205505,552.811646 
	C844.953796,556.923279 846.685486,557.883728 850.461243,557.844788 
	C865.426941,557.690552 880.395264,557.791138 895.362610,557.799072 
	C896.526611,557.799683 897.692932,557.770142 898.854004,557.832825 
	C900.531128,557.923218 902.462708,557.935364 902.500610,560.248718 
	C902.544006,562.896362 900.327881,562.140503 898.824951,562.319031 
	C898.004761,562.416504 897.163940,562.339355 895.852600,562.341553 
z"/>
<path fill="#000000" opacity="1.000000" stroke="none" 
	d="
M785.943542,576.228638 
	C778.768311,564.952454 771.819458,553.980164 764.851868,543.019653 
	C763.691406,541.194275 762.576843,539.508789 759.959778,539.289673 
	C754.073914,538.796875 753.289673,539.367188 753.284668,545.278320 
	C753.276672,554.772278 753.310120,564.266479 753.251526,573.760071 
	C753.240906,575.477234 753.674988,577.898376 750.875488,577.779907 
	C748.572754,577.682495 748.754944,575.551575 748.748474,573.930969 
	C748.701599,562.271912 748.745361,550.612366 748.665649,538.953613 
	C748.645691,536.034302 749.752075,534.546997 752.768127,534.755249 
	C752.933716,534.766724 753.104919,534.773499 753.267090,534.745422 
	C760.997375,533.407837 766.292053,535.921448 770.296631,543.167664 
	C775.922546,553.348083 782.697876,562.891785 788.929749,572.740601 
	C789.791687,574.102905 790.928162,575.431335 790.751404,577.317566 
	C788.912659,578.792053 787.440247,578.285461 785.943542,576.228638 
z"/>
<path fill="#000000" opacity="1.000000" stroke="none" 
	d="
M680.359375,523.194885 
	C674.900940,506.427002 669.586121,489.991028 664.309509,473.542816 
	C663.820557,472.018707 662.920044,469.988800 665.187744,469.335907 
	C667.293701,468.729614 667.923584,470.777557 668.429382,472.339966 
	C674.312073,490.509399 680.154785,508.691803 686.019531,526.867065 
	C686.934082,529.701050 685.770203,530.968445 682.966614,531.027161 
	C680.805481,531.072510 678.625793,531.257324 676.485168,531.054749 
	C671.157166,530.550354 666.591797,531.070679 664.503906,537.146057 
	C663.671753,539.567383 661.504211,539.932861 659.195435,538.829956 
	C660.819031,530.529358 665.319763,526.684204 673.082947,526.791260 
	C674.911316,526.816528 676.740967,526.742493 678.569580,526.760071 
	C681.089050,526.784302 681.292358,525.458801 680.359375,523.194885 
z"/>
<path fill="#000000" opacity="1.000000" stroke="none" 
	d="
M790.257202,500.829407 
	C786.159546,511.128937 778.827026,515.903381 768.534546,515.340942 
	C766.677063,515.239380 764.511353,515.356140 764.664673,512.698669 
	C764.807739,510.219086 767.010254,510.848572 768.544739,510.769379 
	C778.927490,510.233521 783.983704,506.775269 786.172241,498.632294 
	C788.454834,490.139008 782.095947,481.483551 773.279724,481.214935 
	C769.458069,481.098480 765.628540,481.263580 761.802795,481.249207 
	C760.458191,481.244171 758.938232,481.171143 758.808777,479.377655 
	C758.665649,477.395905 760.131042,476.813385 761.749451,476.797333 
	C766.736572,476.747894 771.790649,476.282562 776.698303,476.914429 
	C786.290161,478.149414 792.673889,489.538940 790.257202,500.829407 
z"/>
<path fill="#000000" opacity="1.000000" stroke="none" 
	d="
M798.325439,557.725281 
	C802.520691,564.450500 806.520264,570.871765 810.578735,577.387512 
	C807.706909,578.817993 805.968018,578.346497 804.567871,576.103821 
	C794.984009,560.753052 785.355347,545.430176 775.762695,530.084839 
	C775.085327,529.001221 774.088989,527.911194 775.169006,526.172791 
	C777.992615,525.027466 779.069275,527.360657 780.263733,529.233337 
	C786.245667,538.612305 792.179138,548.022278 798.325439,557.725281 
z"/>
<path fill="#000000" opacity="1.000000" stroke="none" 
	d="
M376.525330,526.697266 
	C376.546967,521.780579 376.667114,517.280945 376.624176,512.782959 
	C376.591095,509.319092 378.638306,508.721924 381.500305,508.680939 
	C384.461609,508.638580 386.338440,509.438507 386.271393,512.838806 
	C386.186005,517.169861 386.261200,521.503967 386.255920,525.836792 
	C386.253326,527.966736 385.954498,530.093628 383.254272,530.134766 
	C380.648987,530.174500 377.255981,531.479126 376.525330,526.697266 
z"/>
<path fill="#000000" opacity="1.000000" stroke="none" 
	d="
M400.567200,509.649200 
	C401.821442,515.569763 401.218811,521.195251 401.343536,526.799988 
	C401.410431,529.807678 399.364868,530.213135 397.018433,530.247925 
	C394.671082,530.282715 392.649689,529.955139 392.646149,526.911804 
	C392.640381,521.950500 392.229523,516.953735 392.689911,512.037415 
	C393.202301,506.565765 397.274994,509.006500 400.567200,509.649200 
z"/>
<path fill="#000000" opacity="1.000000" stroke="none" 
	d="
M674.521362,516.621094 
	C674.818237,519.278442 677.884216,522.538696 674.966003,523.559265 
	C671.088318,524.915344 671.235413,520.362854 670.401611,517.964905 
	C667.395264,509.318817 664.555664,500.613953 661.733215,491.905304 
	C661.115967,490.000702 659.367798,487.261566 662.239441,486.349335 
	C665.163391,485.420502 665.301819,488.823212 665.932312,490.648315 
	C668.865845,499.140259 671.593262,507.703430 674.521362,516.621094 
z"/>
<path fill="#000000" opacity="1.000000" stroke="none" 
	d="
M391.970337,586.673950 
	C394.945496,586.691040 397.427673,586.663879 399.906525,586.741882 
	C401.449646,586.790466 403.045441,587.043335 402.979401,589.109619 
	C402.927826,590.722839 402.176697,592.173889 400.390747,592.202637 
	C392.460205,592.330444 384.522156,592.500854 376.598633,592.262573 
	C374.055786,592.186035 374.019043,589.746826 374.384033,587.094727 
	C380.022186,586.172852 385.775970,586.890137 391.970337,586.673950 
z"/>
<path fill="#000000" opacity="1.000000" stroke="none" 
	d="
M377.347229,596.224854 
	C384.264618,595.888611 390.865387,595.773621 397.466553,595.734253 
	C398.946075,595.725464 400.645905,595.777222 400.704041,597.886292 
	C400.755585,599.756714 399.402863,600.442322 397.812592,600.656616 
	C391.891907,601.454468 385.935486,601.154663 380.002228,600.971191 
	C377.405579,600.890808 376.224609,599.163330 377.347229,596.224854 
z"/>
<path fill="#000000" opacity="1.000000" stroke="none" 
	d="
M882.963623,509.668304 
	C885.784729,509.686859 888.114929,509.672699 890.442810,509.738953 
	C891.652893,509.773376 892.842285,510.037567 892.967224,511.563507 
	C893.100037,513.185852 892.222778,514.158630 890.652649,514.158386 
	C883.337524,514.157288 876.021301,514.124390 868.708374,513.965881 
	C867.306641,513.935486 866.116394,512.964844 866.302917,511.343719 
	C866.473328,509.863159 867.811951,509.734131 868.993164,509.722748 
	C873.485718,509.679413 877.978821,509.682922 882.963623,509.668304 
z"/>
<path fill="#000000" opacity="1.000000" stroke="none" 
	d="
M385.230011,608.042847 
	C384.107330,608.049255 383.445801,608.050171 382.784241,608.050049 
	C380.690063,608.049744 378.356415,607.820557 378.477509,605.180786 
	C378.603363,602.436523 381.081848,603.361816 382.769073,603.379578 
	C386.901947,603.423096 391.037201,603.466797 395.164978,603.653442 
	C396.649414,603.720642 398.947388,603.115173 398.899628,605.641418 
	C398.856903,607.904358 396.682251,607.800842 395.114960,607.884521 
	C391.979889,608.051880 388.833099,607.998901 385.230011,608.042847 
z"/>
<path fill="#000000" opacity="1.000000" stroke="none" 
	d="
M756.067993,472.576294 
	C754.368042,475.086212 752.576111,476.795746 749.925476,474.500824 
	C748.865295,473.582916 748.666687,472.185638 749.257629,470.861145 
	C749.936035,469.340851 751.236633,468.745972 752.852844,468.784088 
	C755.065186,468.836273 756.137512,470.004700 756.067993,472.576294 
z"/>
<path fill="#000000" opacity="1.000000" stroke="none" 
	d="
M761.383484,511.194824 
	C762.959595,513.264099 763.091980,514.865540 760.371704,515.249817 
	C758.892273,515.458801 757.100708,515.315063 757.104309,513.272827 
	C757.109009,510.595825 759.163940,510.820343 761.383484,511.194824 
z"/>
</svg>